<svg width="451" height="81" viewBox="0 0 451 81" fill="none" xmlns="http://www.w3.org/2000/svg">
<path d="M0 33.7456L12.5278 37.6958C25.0556 41.4983 50.1111 49.6202 75.1667 49.5094C100.222 49.6202 125.278 41.4983 150.333 31.789C175.389 21.9321 200.444 10.1185 225.5 4.21167C250.556 -1.69512 275.611 -1.69512 300.667 6.1683C325.722 14.1794 350.778 29.6847 375.833 33.7456C400.889 37.8066 425.944 29.6847 438.472 25.8822L451 21.9321V81H438.472C425.944 81 400.889 81 375.833 81C350.778 81 325.722 81 300.667 81C275.611 81 250.556 81 225.5 81C200.444 81 175.389 81 150.333 81C125.278 81 100.222 81 75.1667 81C50.1111 81 25.0556 81 12.5278 81H0V33.7456Z" fill="#FFD3D3"/>
</svg> 